<?xml version="1.0" encoding="UTF-8" standalone="no"?>
<svg
   xmlns:dc="http://purl.org/dc/elements/1.1/"
   xmlns:cc="http://creativecommons.org/ns#"
   xmlns:rdf="http://www.w3.org/1999/02/22-rdf-syntax-ns#"
   xmlns:svg="http://www.w3.org/2000/svg"
   xmlns="http://www.w3.org/2000/svg"
   xmlns:sodipodi="http://sodipodi.sourceforge.net/DTD/sodipodi-0.dtd"
   xmlns:inkscape="http://www.inkscape.org/namespaces/inkscape"
   width="512"
   height="512"
   viewBox="0 0 512.00001 511.99999"
   id="svg2"
   version="1.1"
   inkscape:version="0.91 r13725"
   sodipodi:docname="fingers.svg">
  <metadata
     id="metadata12">
    <rdf:RDF>
      <cc:Work
         rdf:about="">
        <dc:format>image/svg+xml</dc:format>
        <dc:type
           rdf:resource="http://purl.org/dc/dcmitype/StillImage" />
        <dc:title></dc:title>
      </cc:Work>
    </rdf:RDF>
  </metadata>
  <sodipodi:namedview
     pagecolor="#ffffff"
     bordercolor="#666666"
     borderopacity="1"
     objecttolerance="10"
     gridtolerance="10"
     guidetolerance="10"
     inkscape:pageopacity="0"
     inkscape:pageshadow="2"
     inkscape:window-width="1680"
     inkscape:window-height="995"
     id="namedview10"
     showgrid="false"
     inkscape:showpageshadow="false"
     inkscape:zoom="0.49647627"
     inkscape:cx="220.31758"
     inkscape:cy="237.675"
     inkscape:window-x="0"
     inkscape:window-y="27"
     inkscape:window-maximized="1"
     inkscape:current-layer="svg2" />
  <defs
     id="defs4" />
  <g
     id="g6"
     transform="translate(0,2.40868)">
    <path
       d="m 51.4,373.35 q -9.1,-19.6 -9.1,-34.15 19.95,-44.95 51.65,-43.55 9.25,2.45 -10.7,9.45 -47.95,34.45 -23.95,63 14.35,13.1 33.4,15.75 33.25,3.5 -4.55,4.9 Q 60.85,391 51.4,373.35 M 118.1,79 q 20.45,2.45 31.65,13.45 26.8,35.7 -2.25,9.45 -32.75,-21 -53.75,-6.1 -26.05,18.9 -8.75,51.25 16.8,31 -6.3,7.9 -16.8,-23.8 -4.55,-47.6 Q 88.85,79 118.1,79 m 266.15,45.3 q -20.85,30.1 -2.45,-2.1 19.6,-26.6 45.5,-25.2 22.2,0.9 34.3,19.8 16.1,18.9 4.2,37.45 -12.1,22.4 -4.9,-0.35 3.65,-35.9 -22.4,-45.85 -32.55,-12.6 -54.25,16.25 m -51.3,-78.55 q 12.45,-3.7 14.7,19.6 1.4,16.95 -3.65,99.9 -2.3,108.15 38.85,10.7 22.75,-72.45 51.25,-51.65 10.7,3.85 9.45,18.55 Q 442.5,153.7 427.65,198 387.9,326.6 387.9,442.45 l 0,51.3 -69.3,0 q -46.2,1.4 -61.05,-3.15 -10.5,-3.15 -17.15,-20.65 -40.75,-82.6 -140.35,-100.8 -32.9,-4.75 -30.25,-19.6 9.25,-38.5 69.3,-22.6 66.85,16.65 53.55,-26.6 Q 179,268.7 139.95,205.7 72.4,104.9 118.95,104.9 q 17.15,1.05 50.05,51.95 62.15,117.6 56,-31.5 -7.7,-76.45 12.45,-84.35 6.8,-2.95 12.05,-2.25 18.35,-9.1 23.95,91.35 5.8,78.4 11.05,78.4 5.95,-4.9 11,-38 5.95,-38.15 6.15,-73.3 -0.2,-57.25 31.3,-51.45 m 39.2,35.5 q -11.7,29.25 -4.7,-3.3 2.25,-32.75 -18.4,-44.45 -24.5,-14.2 -47.6,6.8 -10.65,17.7 -25.7,0 -57.2,-32.55 -71.55,25.75 -4.05,24.65 -5.25,-1.6 1.2,-21.15 12.6,-32.55 18.7,-13.1 41.95,-13.1 21.2,-0.55 26.45,8.4 5.25,8.55 21.7,0 43.05,-21.55 65.8,13.1 16.1,18.4 4.7,40.95"
       id="path8"
       inkscape:connector-curvature="0"
       style="fill:#000000;stroke:none" />
  </g>
</svg>
