<?xml version="1.0" encoding="UTF-8" standalone="no"?>
<svg
   xmlns:dc="http://purl.org/dc/elements/1.1/"
   xmlns:cc="http://creativecommons.org/ns#"
   xmlns:rdf="http://www.w3.org/1999/02/22-rdf-syntax-ns#"
   xmlns:svg="http://www.w3.org/2000/svg"
   xmlns="http://www.w3.org/2000/svg"
   xmlns:sodipodi="http://sodipodi.sourceforge.net/DTD/sodipodi-0.dtd"
   xmlns:inkscape="http://www.inkscape.org/namespaces/inkscape"
   width="512"
   height="512"
   viewBox="0 0 512 512.00001"
   id="svg2"
   version="1.1"
   inkscape:version="0.91 r13725"
   sodipodi:docname="pinch-in.svg">
  <metadata
     id="metadata12">
    <rdf:RDF>
      <cc:Work
         rdf:about="">
        <dc:format>image/svg+xml</dc:format>
        <dc:type
           rdf:resource="http://purl.org/dc/dcmitype/StillImage" />
        <dc:title></dc:title>
      </cc:Work>
    </rdf:RDF>
  </metadata>
  <sodipodi:namedview
     pagecolor="#ffffff"
     bordercolor="#666666"
     borderopacity="1"
     objecttolerance="10"
     gridtolerance="10"
     guidetolerance="10"
     inkscape:pageopacity="0"
     inkscape:pageshadow="2"
     inkscape:window-width="1680"
     inkscape:window-height="995"
     id="namedview10"
     showgrid="false"
     inkscape:showpageshadow="false"
     inkscape:zoom="0.49757539"
     inkscape:cx="195.65424"
     inkscape:cy="237.14999"
     inkscape:window-x="0"
     inkscape:window-y="27"
     inkscape:window-maximized="1"
     inkscape:current-layer="svg2" />
  <defs
     id="defs4" />
  <g
     id="g6"
     transform="translate(4.1,-2.5918182)">
    <path
       d="m 160.2,252.55 q -26.85,22.5 -2.55,49.5 16.5,26.25 -8.1,1.95 -23.4,-28.2 3.3,-55.05 13.65,-14.85 26.55,-14.1 9.45,0.6 22.05,10.5 22.5,14.7 -6,2.55 -16.35,-12.3 -35.25,4.65 m -26.25,71.25 q 3.15,0.3 0.6,8.4 l -7.2,29.4 q -5.55,19.8 -13.5,16.5 -11.85,0.6 -24,18.9 -25.95,35.1 -25.95,15.9 2.85,-9.9 15.75,-26.4 16.5,-19.5 7.8,-28.2 -9.75,-6.9 17.4,-21.6 24,-13.5 29.1,-12.9 M 216.3,197.05 q -4.95,-2.55 -11.25,-14.4 -17.1,-26.4 5.7,-47.55 16.35,-12 34.95,-11.85 15.75,0.45 24,8.7 17.85,30.9 -4.65,10.65 -28.05,-18 -45.9,-5.25 -22.5,16.2 -7.65,43.95 7.95,15.75 4.8,15.75 m 193.65,56.4 q 6.45,-2.7 17.85,3.45 16.2,19.5 15.3,78.6 -1.05,70.05 -18.15,114.3 l -16.65,43.35 -57.3,0 q -57.45,2.7 -57.45,-11.1 -5.1,-16.8 -28.65,-42.45 -32.4,-38.4 -49.05,-72.3 -23.1,-44.7 -38.1,-64.2 -30.15,-33 -5.4,-42.45 37.8,0.15 60.75,40.65 30.75,53.85 30.75,-25.35 0.9,-28.05 -3.75,-43.95 -3.9,-12.9 -18.45,-31.35 -35.1,-35.25 -11.1,-55.65 3.6,-2.85 7.05,-3.15 5.85,-3.75 37.8,30.9 29.25,37.65 52.2,33.3 18,-6.3 22.95,12.6 5.1,16.05 14.4,12.3 13.2,-1.35 25.65,11.25 15.9,14.85 19.35,11.25 M 352.8,26.95 q -1.8,6.9 -7.35,16.35 -3.75,6.3 -9.15,13.8 -17.55,21.3 -7.35,27.9 9.15,5.55 -17.1,18.15 -26.55,12.45 -28.2,12.45 -1.35,-4.5 1.05,-25.95 1.8,-25.95 16.5,-25.95 15.15,-3.75 25.65,-20.4 l 1.2,-1.95 q 13.65,-21.15 20.4,-22.05 4.35,-0.45 4.35,7.65"
       id="path8"
       inkscape:connector-curvature="0"
       style="fill:#000000;stroke:none" />
  </g>
</svg>
