<?xml version="1.0" encoding="UTF-8" standalone="no"?>
<svg
   xmlns:dc="http://purl.org/dc/elements/1.1/"
   xmlns:cc="http://creativecommons.org/ns#"
   xmlns:rdf="http://www.w3.org/1999/02/22-rdf-syntax-ns#"
   xmlns:svg="http://www.w3.org/2000/svg"
   xmlns="http://www.w3.org/2000/svg"
   xmlns:sodipodi="http://sodipodi.sourceforge.net/DTD/sodipodi-0.dtd"
   xmlns:inkscape="http://www.inkscape.org/namespaces/inkscape"
   width="512"
   height="512"
   viewBox="0 0 511.99998 512"
   id="svg4184"
   version="1.1"
   inkscape:version="0.91 r13725"
   sodipodi:docname="swipe-left.svg">
  <metadata
     id="metadata4194">
    <rdf:RDF>
      <cc:Work
         rdf:about="">
        <dc:format>image/svg+xml</dc:format>
        <dc:type
           rdf:resource="http://purl.org/dc/dcmitype/StillImage" />
        <dc:title></dc:title>
      </cc:Work>
    </rdf:RDF>
  </metadata>
  <sodipodi:namedview
     pagecolor="#ffffff"
     bordercolor="#666666"
     borderopacity="1"
     objecttolerance="10"
     gridtolerance="10"
     guidetolerance="10"
     inkscape:pageopacity="0"
     inkscape:pageshadow="2"
     inkscape:window-width="1680"
     inkscape:window-height="995"
     id="namedview4192"
     showgrid="false"
     inkscape:showpageshadow="false"
     inkscape:zoom="0.48836006"
     inkscape:cx="198.85001"
     inkscape:cy="241.625"
     inkscape:window-x="0"
     inkscape:window-y="27"
     inkscape:window-maximized="1"
     inkscape:current-layer="svg4184" />
  <defs
     id="defs4186" />
  <g
     id="g4188"
     transform="translate(15.317455,2.0273585)">
    <path
       d="m 30.35,121.95 q 21.6,-7.2 45.3,-18.6 17.35,-8.3 23.1,-8.65 5.15,-0.3 2.25,14.95 -3.1,15.15 60.95,14 70.25,17.9 -14.25,17.4 -52.65,-5.4 -48,10.05 3.7,22.25 -53.15,-7.65 -33,-16.7 -16.2,-21.5 m 297.9,-64.5 q 7.5,-1.75 18.35,4.9 10.7,6.45 19.1,67.55 1.2,7.15 1.4,12.4 0.15,8.6 3.65,34.15 3.35,25.35 3.85,39.9 5.95,3.15 11.4,1.05 36.2,-12.95 36.2,98.15 1.95,67.05 -16.95,108.5 -17.15,41.15 -17.5,57.25 3.85,12.75 -9.8,16.45 -10,2.8 -59.5,2.8 -69.15,2.8 -69.15,-12.95 -5.75,-19.6 -33.6,-49.9 -37.8,-45.5 -59.65,-88.35 -30.1,-56.9 -48.3,-81.2 -37.45,-44.1 7.35,-44.1 21.7,1.2 50.05,34.65 31.5,34.3 39.7,34.3 9.8,7 9.8,-115.85 -0.85,-54.8 0.35,-63.9 2.8,-21.7 13.65,-32.9 10.7,-11.2 28.35,-2.95 l 3.7,1.55 q 4.9,-22.9 9.6,-28.85 5.1,-6.5 15.25,-7.2 15.05,-0.5 24.15,16.45 l 2.6,6.65 q 8.25,-7 15.95,-8.55 m 1.55,-32.4 q 13.3,-7.15 29.75,1.4 16.45,8.6 23.1,37.8 -28.7,-53.2 -67.55,-25.35 l -0.35,-0.35 q -26.6,-31.15 -56.35,4 -50.4,-5.4 -57.75,35.2 -5.75,26.6 -6.8,3.15 6.3,-49.35 45.5,-49.35 14.7,4 27.8,-7.55 6.15,-7.35 21.35,-6.1 15.25,1.05 21.55,7.7 6.3,6.45 19.75,-0.55"
       id="path4190"
       inkscape:connector-curvature="0"
       style="fill:#000000;stroke:none" />
  </g>
</svg>
