<?xml version="1.0" encoding="UTF-8" standalone="no"?>
<svg
   xmlns:dc="http://purl.org/dc/elements/1.1/"
   xmlns:cc="http://creativecommons.org/ns#"
   xmlns:rdf="http://www.w3.org/1999/02/22-rdf-syntax-ns#"
   xmlns:svg="http://www.w3.org/2000/svg"
   xmlns="http://www.w3.org/2000/svg"
   xmlns:sodipodi="http://sodipodi.sourceforge.net/DTD/sodipodi-0.dtd"
   xmlns:inkscape="http://www.inkscape.org/namespaces/inkscape"
   width="512"
   height="512"
   viewBox="0 0 511.99998 511.99999"
   id="svg4323"
   version="1.1"
   inkscape:version="0.91 r13725"
   sodipodi:docname="swipe-up.svg">
  <metadata
     id="metadata4333">
    <rdf:RDF>
      <cc:Work
         rdf:about="">
        <dc:format>image/svg+xml</dc:format>
        <dc:type
           rdf:resource="http://purl.org/dc/dcmitype/StillImage" />
        <dc:title></dc:title>
      </cc:Work>
    </rdf:RDF>
  </metadata>
  <sodipodi:namedview
     pagecolor="#ffffff"
     bordercolor="#666666"
     borderopacity="1"
     objecttolerance="10"
     gridtolerance="10"
     guidetolerance="10"
     inkscape:pageopacity="0"
     inkscape:pageshadow="2"
     inkscape:window-width="1680"
     inkscape:window-height="995"
     id="namedview4331"
     showgrid="false"
     inkscape:showpageshadow="false"
     inkscape:zoom="0.77631174"
     inkscape:cx="92.369205"
     inkscape:cy="271.68655"
     inkscape:window-x="0"
     inkscape:window-y="27"
     inkscape:window-maximized="1"
     inkscape:current-layer="svg4323" />
  <defs
     id="defs4325" />
  <g
     id="g4327"
     transform="translate(11.301687,0.02735849)">
    <path
       d="m 145.5,64.9 q 8.4,17.3 8.75,23.1 0.35,5.05 -14.9,2.25 -15.2,-2.95 -13.65,61.1 -17.5,70.35 -17.5,-14.2 Q 113.3,84.5 97.9,89.2 75.65,93.05 105.25,36 121.7,2.95 126.6,19.75 q 7.35,21.5 18.9,45.15 m 207.2,67 q 1.2,7.2 1.4,12.45 0.15,8.55 3.65,34.1 3.35,25.4 3.85,39.9 5.95,3.15 11.4,1.05 36.2,-12.95 36.2,98.2 1.95,67 -16.95,108.5 -17.15,41.1 -17.5,57.2 3.85,12.8 -9.8,16.45 -10,2.8 -59.5,2.8 -69.15,2.8 -69.15,-12.95 -5.75,-19.6 -33.6,-49.85 -37.8,-45.5 -59.65,-88.4 -30.1,-56.85 -48.3,-81.2 -37.45,-44.1 7.35,-44.1 21.7,1.25 50.05,34.65 31.5,34.3 39.7,34.3 9.8,7 9.8,-115.85 -0.85,-54.75 0.35,-63.85 2.8,-21.7 13.65,-32.9 10.7,-11.2 28.35,-3 l 3.7,1.6 q 4.9,-22.95 9.6,-28.9 5.1,-6.45 15.25,-7.15 15.05,-0.55 24.15,16.45 l 2.6,6.65 q 8.25,-7 15.95,-8.6 7.5,-1.75 18.35,4.9 10.7,6.5 19.1,67.55 M 346.55,28.5 Q 363,37.05 369.65,66.3 340.95,13.1 302.1,40.9 l -0.35,-0.35 Q 275.15,9.4 245.4,44.6 195,39.15 187.65,79.75 q -5.75,26.6 -6.8,3.15 6.3,-49.35 45.5,-49.35 14.7,4.05 27.8,-7.5 6.15,-7.35 21.35,-6.15 15.25,1.05 21.55,7.7 6.3,6.5 19.75,-0.5 13.3,-7.2 29.75,1.4"
       id="path4329"
       inkscape:connector-curvature="0"
       style="fill:#000000;stroke:none" />
  </g>
</svg>
