<?xml version="1.0" encoding="UTF-8" standalone="no"?>
<svg
   xmlns:dc="http://purl.org/dc/elements/1.1/"
   xmlns:cc="http://creativecommons.org/ns#"
   xmlns:rdf="http://www.w3.org/1999/02/22-rdf-syntax-ns#"
   xmlns:svg="http://www.w3.org/2000/svg"
   xmlns="http://www.w3.org/2000/svg"
   xmlns:sodipodi="http://sodipodi.sourceforge.net/DTD/sodipodi-0.dtd"
   xmlns:inkscape="http://www.inkscape.org/namespaces/inkscape"
   width="420"
   height="380"
   viewBox="0 0 419.99999 380.00001"
   id="svg2"
   version="1.1"
   inkscape:version="0.91 r13725"
   sodipodi:docname="touchpad.svg">
  <metadata
     id="metadata12">
    <rdf:RDF>
      <cc:Work
         rdf:about="">
        <dc:format>image/svg+xml</dc:format>
        <dc:type
           rdf:resource="http://purl.org/dc/dcmitype/StillImage" />
        <dc:title></dc:title>
      </cc:Work>
    </rdf:RDF>
  </metadata>
  <sodipodi:namedview
     pagecolor="#ffffff"
     bordercolor="#666666"
     borderopacity="1"
     objecttolerance="10"
     gridtolerance="10"
     guidetolerance="10"
     inkscape:pageopacity="0"
     inkscape:pageshadow="2"
     inkscape:window-width="1680"
     inkscape:window-height="995"
     id="namedview10"
     showgrid="false"
     showborder="true"
     inkscape:showpageshadow="false"
     inkscape:zoom="0.99613315"
     inkscape:cx="121.22495"
     inkscape:cy="219.78036"
     inkscape:window-x="0"
     inkscape:window-y="27"
     inkscape:window-maximized="1"
     inkscape:current-layer="svg2" />
  <defs
     id="defs4" />
  <g
     id="g6"
     transform="translate(-1.9608994,10.377725)">
    <path
       d="m 393.5,26.2 0,0.05 0.85,21.05 0.05,1.25 q 4.55,96.15 4,195.9 l -0.2,9.9 q -0.35,4.05 -0.45,12.1 -0.1,8.1 -0.8,14.15 l -0.25,2.3 q 0,3.8 -0.4,5.9 l -0.45,1.6 0.05,0.25 q 0,1 -0.35,1.65 l -0.15,0.65 q -1,2.15 -4.65,2.95 l -0.25,0 -0.6,0.15 -8.1,0 -92.6,3.8 q -0.5,10.35 -0.5,20.6 l 0,32.85 -44.35,0 q -29.6,0.95 -39.05,-2 -6.7,-2.05 -11,-13.2 -10.95,-22.15 -28.5,-37.05 -55.25,-0.65 -103.85,-2.5 L 37,297.5 l -0.05,0 -2.15,-0.35 -0.15,-0.05 q -2.2,-0.95 -2.2,-4.05 l 0,-0.05 -0.85,-21.05 -0.05,-1.25 Q 27,174.55 27.55,74.8 l 0.2,-9.9 0.45,-12.1 Q 28.3,44.7 29,38.65 l 0.25,-2.3 q 0,-3.8 0.4,-5.9 0.15,-0.9 0.45,-1.6 L 30.05,28.6 q 0,-1 0.35,-1.65 l 0.15,-0.65 q 1,-2.15 4.65,-2.95 l 0.25,0 0.6,-0.15 8.1,0 121.85,-4.5 1.15,0 0.15,0 1.25,0 Q 287.6,17.8 364,20.7 l 24.95,1.05 0.05,0 2.15,0.35 0.15,0.05 q 2.2,0.95 2.2,4.05 m -9.7,-1.6 q -8.2,0.65 -35.85,0.15 L 285.25,26.8 80.35,29.25 47.9,27.3 q -11,-0.85 -12.25,5.1 0.85,6.3 0.45,63.95 -0.8,123.6 -1.55,163.1 0.95,21.1 0.4,28.9 -0.6,7.85 7.2,6.3 Q 50.35,294 78,294.5 l 62.8,-1.95 13.15,-0.3 q -21,-13.45 -49.45,-18.65 -21.05,-3.05 -19.4,-12.55 5.95,-24.6 44.4,-14.5 42.75,10.7 34.25,-16.95 -8.8,-20.35 -33.75,-60.6 -43.2,-64.55 -13.45,-64.55 10.95,0.7 32.05,33.25 39.85,75.35 35.85,-20.15 -4.9,-48.9 7.95,-53.95 4.3,-1.9 7.7,-1.45 11.8,-5.8 15.35,58.45 3.75,50.25 7.05,50.15 3.85,-3.05 7.05,-24.3 3.85,-24.4 3.95,-46.9 -0.15,-36.65 20,-32.95 8,-2.35 9.4,12.55 1,10.9 -2.3,63.9 -1.5,69.3 24.9,6.9 14.55,-46.4 32.8,-33.1 6.8,2.55 6,11.9 -0.6,6.9 -10.2,35.3 -20.3,65.9 -24.35,126.5 l 54.5,-0.6 -0.4,-0.05 39.45,2.05 q 5.75,0.85 7,-5.1 -0.85,-6.3 -0.45,-63.95 0.8,-123.6 1.55,-163.1 -0.95,-21.1 -0.4,-28.9 0.6,-7.85 -7.2,-6.3 m -45.25,111.45 q -7.75,14.4 -3.15,-0.2 2.4,-23 -14.3,-29.35 -20.9,-8.05 -34.75,10.35 -13.3,19.3 -1.55,-1.35 12.5,-17 29.1,-16.1 14.25,0.55 22,12.65 10.3,12.1 2.65,24 M 278.6,89.3 q -7.5,18.75 -3,-2.1 1.45,-20.95 -11.75,-28.4 -15.75,-9.1 -30.5,4.3 -6.75,11.35 -16.45,0 -36.6,-20.8 -45.75,16.55 -2.6,15.75 -3.35,-1.1 0.7,-13.5 8.05,-20.85 11.95,-8.3 26.85,-8.3 13.5,-0.35 16.95,5.35 3.25,5.5 13.85,0 27.6,-13.85 42.1,8.35 10.3,11.8 3,26.2 m -142.3,7.2 q 17.15,22.85 -1.45,6.05 -20.95,-13.45 -34.4,-3.9 -16.75,12.05 -5.6,32.8 10.8,19.8 -4.05,5.05 -10.7,-15.2 -2.9,-30.45 9.4,-18.2 28.15,-18.2 13.05,1.6 20.25,8.65"
       id="path8"
       inkscape:connector-curvature="0"
       style="fill:#000000;stroke:none" />
  </g>
</svg>
